# Blender 3.5.0
# www.blender.org
mtllib LOD2emoji_poop.mtl
o PoopEmoji
v -2.218707 10.243870 -1.269219
v -1.885818 5.560153 -1.269218
v -1.897683 6.773705 -1.269218
v -0.171617 9.186707 -1.269219
v -1.645654 9.423794 -1.269219
v -0.537481 10.243870 5.018641
v -0.870370 5.560153 5.018641
v -1.110538 9.423794 5.018641
v -0.858508 6.773705 5.018641
v -2.584574 9.186704 5.018641
v -1.897683 9.491449 -0.202781
v -0.858508 6.773704 -0.202781
v -1.897683 6.773705 4.745100
v -0.858508 9.491449 4.745099
v 2.859544 9.491448 -0.202781
v 3.898718 6.773704 -0.202781
v 2.859544 6.773705 4.745100
v 3.898718 9.491449 4.745099
v 2.538520 10.243870 -1.269219
v 2.871409 5.560153 -1.269218
v 2.859544 6.773705 -1.269218
v 4.585611 9.186706 -1.269219
v 3.111573 9.423794 -1.269219
v 4.219747 10.243869 5.018641
v 3.886857 5.560153 5.018641
v 3.646693 9.423792 5.018641
v 3.898718 6.773705 5.018641
v 2.172653 9.186702 5.018641
v 9.996346 1.121317 -3.052129
v 0.859730 13.912043 -3.024661
v -1.653193 0.877819 5.094366
v -7.431180 0.803730 -3.024873
v -1.704016 0.883740 -11.124532
v -2.783101 5.102581 4.739433
v 1.067409 2.536438 6.978174
v 1.644380 2.648805 4.286798
v 7.259119 1.741061 -2.756767
v 11.735618 0.794720 -3.011506
v -4.507936 0.969062 -11.868767
v -8.390325 0.827468 -0.132798
v -3.882257 1.575479 5.758545
v 1.743484 0.781008 5.623051
v -1.306846 5.556844 -5.423665
v 0.710092 6.436672 -7.157801
v 4.107454 5.153263 -5.558657
v 2.920342 2.665574 -7.131813
v 5.556837 5.416098 -2.532842
v 3.610561 4.915973 1.357085
v 4.313978 5.372417 5.213885
v -2.005000 3.180877 -6.072995
v -3.794099 2.698995 -9.039534
v 8.613445 1.224732 -2.123064
v 4.587883 2.069124 -9.868219
v 5.742360 2.246846 -1.369565
v -1.601880 4.310886 1.831116
v 1.671772 0.918710 2.618649
v -3.328705 0.863729 0.987476
v -4.427955 4.025245 -10.136497
v -6.361477 4.967728 -0.664860
v -8.712994 3.208606 -5.776810
v 0.010174 2.863098 -8.726578
v 2.281431 1.645346 -13.529135
v 4.811835 3.557400 -11.028469
v 9.976883 1.032460 -9.519953
v 10.906639 2.700480 -3.055870
v -3.484746 2.612630 -0.839896
v -3.373109 1.035842 -5.557817
v 0.045496 0.860708 -8.181202
v 5.638204 1.727610 -6.427501
v -5.609243 8.084102 -2.947169
v -6.671183 3.788382 -1.617041
v -5.554706 4.576145 -8.622408
v 3.043138 3.726763 -11.552031
v -7.461332 6.644088 -1.845269
v -2.914623 6.785150 -10.386512
v 7.761508 4.237078 -9.119374
v 10.098016 2.794060 -4.692091
v 7.241738 1.913640 4.329772
v 3.314750 6.778346 -10.704354
v 9.053476 6.445370 -3.914366
v 9.356027 4.407237 2.200153
v -7.670850 3.416303 2.033453
v -8.612568 1.153100 -6.134957
v 1.108060 14.668726 -3.071918
v 0.766595 13.301947 -2.741755
v 0.987663 12.386955 -2.376181
v 1.560024 11.976747 -3.784192
v 1.076548 12.550391 -3.312920
v 0.184062 10.411012 -3.165173
v 6.407977 12.030306 -3.527251
v 2.083968 11.937668 2.145585
v 2.589774 11.709475 -1.444330
v -0.641030 10.923141 -1.367565
v 0.972369 11.199148 -1.962416
v 0.372657 12.833779 -5.200103
v 0.060332 15.069833 -1.314220
v -0.794090 13.738875 -2.513165
v 4.357967 12.116568 -2.522227
v 2.343340 8.774557 -2.458843
v -0.564136 7.515820 -1.571851
v -3.946423 9.503119 -7.414878
v -1.934697 10.920860 -5.625349
v 1.442676 10.321530 -8.776817
v 6.145201 8.527053 -8.027887
v 8.181417 7.774939 0.336351
v 6.802716 9.858310 -3.785316
v 0.607333 5.073962 5.226756
v 1.667587 8.107347 4.856381
v -4.395024 5.235315 3.397231
v 5.348275 9.431114 0.177228
v -2.996476 8.690110 1.829055
v 0.360229 9.726630 -5.309778
v 2.208956 7.833404 -4.735311
v 3.436909 6.186278 -3.131380
v 2.299990 8.302678 0.463380
v -2.064107 6.840598 -1.153350
v 1.895221 11.045612 0.280366
v -2.772520 9.879085 -3.441445
v -0.941170 9.390489 -6.750286
v -1.056896 11.285018 0.612007
v -1.820190 6.647393 1.320396
v 3.539658 8.738531 -6.728840
v 5.010312 7.648411 -0.747808
v 2.327299 14.129290 -4.993842
v -1.048344 15.102273 -3.283743
v -3.456342 5.968404 -6.927700
v 3.777327 10.550161 -7.544552
v 6.791358 10.010361 -3.655129
v 1.050765 5.772686 -6.225065
v -1.652536 6.571156 -3.550523
v 2.189262 5.803970 -0.083016
v -2.253726 4.483893 -1.106750
v 6.086051 5.044595 -6.503674
v 3.638894 3.999279 2.104807
v -3.145962 3.418194 1.692063
v 0.224281 13.464039 0.822114
v 3.465172 14.261954 -2.546782
v -3.261073 12.697330 -3.068307
v -0.487929 12.954944 -6.620010
v 4.938369 8.756262 2.177678
v -0.516617 8.613048 3.477960
v -3.962643 9.606927 1.770037
v -4.845221 10.879810 -2.120690
v -5.511719 7.427550 -2.891242
v 1.146101 6.618095 -10.104157
v 8.467731 5.574216 -3.894421
v 6.324263 5.830624 2.972430
v 0.410365 15.855551 -2.878527
vn 0.5262 0.3742 0.7636
vn -0.7258 0.4591 0.5123
vn -0.7272 0.4599 -0.5096
vn 0.5215 0.3741 -0.7669
vn 0.0134 -0.9999 -0.0004
vn 0.0206 -0.9998 -0.0004
vn -0.1948 0.8438 0.5001
vn 0.3113 0.4012 0.8615
vn -0.1965 0.6878 0.6988
vn 0.0323 0.7249 0.6881
vn 0.7280 -0.5124 0.4554
vn 0.4669 0.7272 0.5032
vn -0.7205 -0.0403 0.6922
vn -0.7302 -0.6550 0.1944
vn -0.7392 -0.6221 -0.2581
vn 0.3816 -0.9003 -0.2095
vn 0.1300 -0.2565 -0.9578
vn 0.7409 -0.3453 -0.5761
vn -0.5874 -0.2629 0.7654
vn -0.4394 -0.4761 -0.7617
vn 0.3425 -0.8910 0.2981
vn 0.2498 -0.8231 0.5100
vn -0.4214 -0.4581 0.7827
vn -0.0671 -0.8650 -0.4973
vn 0.0983 -0.8921 0.4410
vn -0.3186 -0.8086 0.4947
vn 0.3367 0.6591 0.6725
vn 0.7465 0.1126 0.6558
vn 0.2507 0.6552 -0.7126
vn -0.4960 0.7031 -0.5095
vn 0.3103 -0.8832 0.3516
vn 0.8530 -0.4966 -0.1607
vn -0.0866 -0.9629 0.2557
vn -0.6374 0.2030 0.7433
vn -0.7398 -0.5735 -0.3517
vn -0.7033 0.7093 0.0473
vn -0.1590 0.9867 -0.0335
vn -0.8406 0.4867 -0.2375
vn -0.8074 0.3513 0.4740
vn 0.2360 0.7807 0.5786
vn -0.2767 0.8348 -0.4760
vn 0.2376 0.9115 -0.3359
vn 0.8622 0.3576 -0.3588
vn 0.4123 -0.9109 0.0200
vn -0.3823 -0.7867 -0.4847
vn -0.8349 -0.0864 -0.5436
vn -0.3593 0.5476 -0.7557
vn 0.1836 -0.8567 -0.4820
vn 0.7333 0.0396 -0.6788
vn 0.9091 -0.3399 -0.2410
vn 0.8520 0.2820 0.4412
vn 0.5649 -0.5257 0.6361
vn -0.9444 0.3136 0.0992
vn 0.2130 0.7568 -0.6180
vn 0.0941 -0.2610 -0.9607
vn 0.5542 0.8314 -0.0395
vn -0.2803 0.9489 -0.1451
vn 0.5957 0.6572 -0.4617
vn 0.2944 0.9249 -0.2405
vn 0.5125 0.8148 0.2710
vn -0.8109 0.5135 -0.2808
vn 0.3795 0.9178 -0.1166
vn 0.1439 0.9226 0.3579
vn -0.8473 0.5301 -0.0319
vn -0.1968 0.4640 0.8637
vn 0.6639 -0.6960 -0.2734
vn 0.7138 0.6961 -0.0763
vn -0.2746 0.7616 -0.5870
vn -0.6936 0.7193 0.0402
vn -0.7082 0.2074 0.6749
vn 0.1088 0.8063 0.5815
vn -0.9197 -0.2734 -0.2817
vn 0.1699 0.8289 -0.5329
vn -0.9418 -0.2083 0.2637
vn 0.0080 0.2814 0.9596
vn -0.7492 -0.5177 0.4131
vn 0.0853 -0.8825 0.4625
vn 0.5260 -0.5610 0.6392
vn 0.9257 -0.3761 -0.0403
vn -0.4331 -0.8374 -0.3335
vn 0.0551 0.8026 -0.5940
vn -0.0484 -0.3804 -0.9236
vn -0.6778 0.3883 -0.6243
vn 0.0656 0.9920 -0.1074
vn 0.6520 0.3112 -0.6914
vn 0.4763 0.8788 -0.0286
vn 0.8820 -0.4395 -0.1699
vn 0.0754 0.5838 0.8084
vn -0.0129 -0.4232 0.9059
vn 0.6737 -0.2868 0.6811
vn -0.6185 -0.1522 0.7709
vn -0.7278 -0.6685 0.1528
vn 0.8789 0.2960 0.3740
vn 0.0515 0.9816 0.1838
vn -0.2857 0.9353 0.2086
vn 0.2745 0.7620 0.5865
vn 0.6589 -0.6998 -0.2759
vn 0.4225 -0.8850 0.1955
vn -0.3925 0.0921 0.9151
vn -0.8643 -0.4981 0.0696
vn -0.3641 0.4022 -0.8400
vn -0.6879 -0.7248 0.0382
vn -0.4588 -0.3838 0.8014
vn -0.5264 -0.5991 -0.6033
vn 0.2274 -0.7824 -0.5797
vn 0.4756 -0.8796 0.0084
vn -0.1814 -0.8930 0.4119
vn -0.0610 0.6448 0.7619
vn -0.5497 -0.7442 -0.3796
vn 0.3920 0.1430 -0.9088
vn 0.9514 -0.2363 -0.1976
vn 0.6589 -0.2428 0.7119
vn -0.0863 -0.8744 0.4775
vn -0.4168 -0.4475 -0.7912
vn 0.3392 -0.8221 -0.4574
vn 0.4138 0.4072 -0.8142
vn 0.6140 0.7642 0.1976
vn -0.4069 -0.4141 -0.8143
vn -0.1135 -0.1932 0.9746
vn -0.9042 -0.4230 0.0598
vn 0.1757 -0.9785 0.1081
vn -0.0000 -0.0000 -1.0000
vn -0.4554 0.8819 0.1218
vn -0.9951 -0.0707 -0.0698
vn -0.8946 -0.4229 0.1445
vn 0.8946 -0.4229 -0.1445
vn 0.9951 -0.0707 0.0698
vn 0.4554 0.8819 -0.1218
vn -0.1588 -0.9872 0.0135
vn -0.9852 -0.0937 -0.1436
vn -0.8061 0.5766 0.1332
vn 0.8061 0.5766 -0.1332
vn 0.9852 -0.0937 0.1436
vn 0.1588 -0.9872 -0.0135
vn -0.0000 -0.0000 1.0000
vn -0.9166 0.3505 0.1925
vn -0.9166 -0.3505 -0.1925
vn 0.9166 -0.3505 0.1925
vn 0.9166 0.3505 -0.1925
s 0
usemtl body
f 31//1 29//1 30//1
f 32//2 31//2 30//2
f 33//3 32//3 30//3
f 29//4 33//4 30//4
f 31//5 32//5 33//5
f 33//6 29//6 31//6
s 1
f 34//7 35//8 36//9
f 36//9 35//8 49//10
f 38//11 65//12 37//13
f 40//14 83//15 57//16
f 62//17 64//18 69//19
f 83//15 39//20 67//21
f 67//21 57//16 83//15
f 39//20 62//17 68//22
f 62//17 69//19 68//22
f 39//20 68//22 67//21
f 41//23 40//14 57//16
f 37//13 69//19 64//18
f 37//13 64//18 38//11
f 57//16 56//24 41//23
f 42//25 41//23 56//24
f 46//26 44//27 43//28
f 55//29 34//7 48//30
f 43//28 50//31 46//26
f 132//32 135//33 50//31
f 44//27 46//26 45//34
f 54//35 47//36 45//34
f 45//34 46//26 54//35
f 47//36 54//35 48//30
f 48//30 56//24 55//29
f 48//30 54//35 56//24
f 55//29 56//24 57//16
f 59//37 60//38 82//39
f 55//29 59//37 34//7
f 61//40 58//41 59//37
f 63//42 62//17 58//41
f 65//12 38//11 64//18
f 63//42 65//12 64//18
f 66//43 59//37 55//29
f 67//21 59//37 66//43
f 67//21 68//22 59//37
f 66//43 57//16 67//21
f 69//19 65//12 63//42
f 54//35 52//44 56//24
f 51//45 72//46 75//47
f 53//48 76//49 77//50
f 52//44 81//51 78//52
f 75//47 72//46 74//53
f 79//54 73//55 75//47
f 79//54 76//49 73//55
f 42//25 35//8 41//23
f 80//56 77//50 76//49
f 43//28 70//57 116//58
f 44//27 79//54 70//57
f 49//10 35//8 78//52
f 49//10 78//52 81//51
f 34//7 41//23 35//8
f 60//38 39//20 83//15
f 148//59 84//60 125//61
f 85//62 87//63 138//64
f 86//65 94//66 87//63
f 87//63 90//67 139//68
f 143//69 142//70 91//71
f 92//72 91//71 87//63
f 93//73 143//69 91//71
f 88//74 85//62 96//75
f 97//76 88//74 96//75
f 86//65 88//74 94//66
f 89//77 94//66 117//78
f 117//78 94//66 98//79
f 99//80 92//72 87//63
f 93//73 92//72 99//80
f 87//63 89//77 99//80
f 103//81 145//82 101//83
f 102//84 101//83 143//69
f 103//81 104//85 145//82
f 106//86 146//87 104//85
f 108//88 107//89 147//90
f 108//88 109//91 107//89
f 71//92 109//91 74//53
f 108//88 147//90 105//93
f 110//94 108//88 105//93
f 111//95 74//53 109//91
f 112//96 103//81 102//84
f 100//97 112//96 102//84
f 112//96 130//98 113//99
f 113//99 106//86 112//96
f 114//100 110//94 113//99
f 115//101 111//95 110//94
f 70//57 74//53 111//95
f 116//58 70//57 111//95
f 118//102 117//78 120//103
f 89//77 119//104 99//80
f 99//80 119//104 122//105
f 99//80 123//106 121//107
f 99//80 121//107 100//97
f 98//79 136//108 117//78
f 100//97 121//107 130//98
f 130//98 121//107 126//109
f 122//105 127//110 128//111
f 121//107 123//106 140//112
f 130//98 129//113 113//99
f 131//114 115//101 114//100
f 129//113 126//109 133//115
f 131//114 135//33 132//32
f 124//116 137//117 98//79
f 125//61 124//116 95//118
f 137//117 136//108 98//79
f 136//108 138//64 120//103
f 138//64 139//68 119//104
f 123//106 128//111 140//112
f 121//107 140//112 141//119
f 139//68 127//110 119//104
f 137//117 85//62 136//108
f 90//67 140//112 128//111
f 143//69 144//120 142//70
f 114//100 133//115 134//121
f 101//83 126//109 144//120
f 126//109 101//83 145//82
f 133//115 104//85 146//87
f 134//121 107//89 135//33
f 135//33 107//89 109//91
f 96//75 148//59 125//61
f 78//52 42//25 56//24
f 109//91 71//92 135//33
f 105//93 147//90 146//87
f 107//89 134//121 147//90
f 147//90 134//121 146//87
f 104//85 133//115 145//82
f 144//120 143//69 101//83
f 146//87 134//121 133//115
f 145//82 133//115 126//109
f 144//120 126//109 121//107
f 141//119 91//71 142//70
f 140//112 91//71 141//119
f 140//112 90//67 91//71
f 127//110 139//68 90//67
f 137//117 124//116 84//60
f 124//116 125//61 84//60
f 142//70 121//107 141//119
f 142//70 144//120 121//107
f 90//67 128//111 127//110
f 127//110 122//105 119//104
f 138//64 119//104 118//102
f 135//33 131//114 134//121
f 134//121 131//114 114//100
f 114//100 129//113 133//115
f 126//109 129//113 130//98
f 132//32 116//58 131//114
f 111//95 131//114 116//58
f 114//100 113//99 129//113
f 128//111 123//106 122//105
f 120//103 138//64 118//102
f 136//108 120//103 117//78
f 96//75 125//61 97//76
f 124//116 98//79 95//118
f 123//106 99//80 122//105
f 125//61 95//118 97//76
f 118//102 119//104 89//77
f 117//78 118//102 89//77
f 95//118 98//79 94//66
f 111//95 115//101 131//114
f 110//94 114//100 115//101
f 108//88 110//94 111//95
f 106//86 113//99 110//94
f 130//98 112//96 100//97
f 103//81 112//96 106//86
f 109//91 108//88 111//95
f 106//86 110//94 105//93
f 104//85 103//81 106//86
f 101//83 102//84 103//81
f 146//87 106//86 105//93
f 93//73 100//97 102//84
f 100//97 93//73 99//80
f 84//60 96//75 85//62
f 95//118 94//66 88//74
f 97//76 95//118 88//74
f 143//69 93//73 102//84
f 91//71 92//72 93//73
f 90//67 87//63 91//71
f 89//77 87//63 94//66
f 86//65 85//62 88//74
f 87//63 85//62 86//65
f 139//68 138//64 87//63
f 138//64 136//108 85//62
f 137//117 84//60 85//62
f 41//23 34//7 82//39
f 40//14 60//38 83//15
f 40//14 82//39 60//38
f 82//39 40//14 41//23
f 81//51 80//56 49//10
f 70//57 79//54 75//47
f 77//50 80//56 81//51
f 35//8 42//25 78//52
f 76//49 79//54 80//56
f 74//53 70//57 75//47
f 81//51 52//44 77//50
f 76//49 53//48 73//55
f 75//47 73//55 51//45
f 56//24 52//44 78//52
f 77//50 52//44 53//48
f 73//55 53//48 51//45
f 74//53 72//46 71//92
f 72//46 51//45 71//92
f 68//22 69//19 61//40
f 65//12 69//19 37//13
f 63//42 61//40 69//19
f 55//29 57//16 66//43
f 61//40 59//37 68//22
f 58//41 61//40 63//42
f 62//17 63//42 64//18
f 39//20 58//41 62//17
f 60//38 59//37 58//41
f 39//20 60//38 58//41
f 82//39 34//7 59//37
f 52//44 54//35 46//26
f 52//44 46//26 53//48
f 53//48 46//26 51//45
f 71//92 51//45 135//33
f 51//45 46//26 50//31
f 50//31 135//33 51//45
f 50//31 43//28 132//32
f 80//56 45//34 47//36
f 48//30 34//7 49//10
f 80//56 48//30 49//10
f 80//56 47//36 48//30
f 132//32 43//28 116//58
f 80//56 44//27 45//34
f 79//54 44//27 80//56
f 70//57 43//28 44//27
f 84//60 148//59 96//75
s 0
usemtl eyes_white
f 1//122 5//122 3//122
f 3//122 2//122 1//122
f 1//122 4//122 5//122
f 3//122 4//122 2//122
f 1//123 10//123 6//123
f 2//124 10//124 1//124
f 2//125 7//125 10//125
f 4//126 7//126 2//126
f 4//127 6//127 7//127
f 1//128 6//128 4//128
f 4//129 8//129 5//129
f 4//130 9//130 8//130
f 3//131 9//131 4//131
f 3//132 10//132 9//132
f 5//133 10//133 3//133
f 5//134 8//134 10//134
f 10//135 8//135 6//135
f 9//135 10//135 7//135
f 8//135 9//135 6//135
f 9//135 7//135 6//135
f 19//122 23//122 21//122
f 21//122 20//122 19//122
f 19//122 22//122 23//122
f 21//122 22//122 20//122
f 19//123 28//123 24//123
f 20//124 28//124 19//124
f 20//125 25//125 28//125
f 22//126 25//126 20//126
f 22//127 24//127 25//127
f 19//128 24//128 22//128
f 22//129 26//129 23//129
f 22//130 27//130 26//130
f 21//131 27//131 22//131
f 21//132 28//132 27//132
f 23//133 28//133 21//133
f 23//134 26//134 28//134
f 28//135 26//135 24//135
f 27//135 28//135 25//135
f 26//135 27//135 24//135
f 27//135 25//135 24//135
usemtl eyes_black
f 11//136 13//136 14//136
f 12//137 13//137 11//137
f 12//138 14//138 13//138
f 11//139 14//139 12//139
f 15//136 17//136 18//136
f 16//137 17//137 15//137
f 16//138 18//138 17//138
f 15//139 18//139 16//139
s 1
usemtl mouse
f 49//10 34//7 36//9
